<?xml version="1.0" encoding="utf-8"?>
<!-- Generator: Adobe Illustrator 26.0.2, SVG Export Plug-In . SVG Version: 6.00 Build 0)  -->
<svg version="1.1" id="Layer_1" xmlns="http://www.w3.org/2000/svg" xmlns:xlink="http://www.w3.org/1999/xlink" x="0px" y="0px"
	 viewBox="0 0 24 24" style="enable-background:new 0 0 24 24;" xml:space="preserve">
<style type="text/css">
	.st0{fill:#FF5E00;}
</style>
<path class="st0" d="M8,11H5c-0.6,0-1-0.4-1-1s0.4-1,1-1h3c0.6,0,1,0.4,1,1S8.6,11,8,11z M23.8,23.7C23.6,23.9,23.3,24,23,24
	c-0.2,0-0.5-0.1-0.6-0.2l-2.5-2.2c-1,0.9-2.4,1.4-3.8,1.4c-3.3,0-6-2.7-6-6s2.7-6,6-6s6,2.7,6,6c0,1.1-0.3,2.2-0.9,3.1l2.5,2.2
	C24.1,22.6,24.1,23.2,23.8,23.7L23.8,23.7z M17,19.3l2.7-2.6c0.4-0.4,0.4-1,0-1.4c-0.4-0.4-1-0.4-1.4,0l-2.7,2.6
	c-0.1,0.1-0.4,0.1-0.5,0l-1.4-1.3c-0.4-0.4-1-0.4-1.4,0c-0.4,0.4-0.4,1,0,1.4l1.4,1.3c0.5,0.4,1.1,0.7,1.7,0.7S16.5,19.8,17,19.3
	L17,19.3z M11,23c0,0.6-0.4,1-1,1H5c-2.8,0-5-2.2-5-5V5c0-2.8,2.2-5,5-5h4.5c1.9,0,3.6,0.7,4.9,2l3.5,3.5c0.9,0.9,1.5,2,1.8,3.2
	c0.1,0.3,0,0.6-0.2,0.9S19.1,10,18.8,10H13c-1.7,0-3-1.3-3-3V2C9.8,2,9.7,2,9.5,2H5C3.3,2,2,3.3,2,5v14c0,1.7,1.3,3,3,3h5
	C10.6,22,11,22.4,11,23L11,23z M12,7c0,0.6,0.4,1,1,1h4.3c-0.2-0.4-0.5-0.7-0.8-1.1L13,3.5c-0.3-0.3-0.7-0.6-1.1-0.8V7z M7,13H5
	c-0.6,0-1,0.4-1,1s0.4,1,1,1h2c0.6,0,1-0.4,1-1S7.6,13,7,13z M7,17H5c-0.6,0-1,0.4-1,1s0.4,1,1,1h2c0.6,0,1-0.4,1-1S7.6,17,7,17z"/>
</svg>
