<?xml version="1.0" encoding="utf-8"?>
<!-- Generator: Adobe Illustrator 26.0.2, SVG Export Plug-In . SVG Version: 6.00 Build 0)  -->
<svg version="1.1" id="Capa_1" xmlns="http://www.w3.org/2000/svg" xmlns:xlink="http://www.w3.org/1999/xlink" x="0px" y="0px"
	 viewBox="0 0 512 512" style="enable-background:new 0 0 512 512;" xml:space="preserve">
<style type="text/css">
	.st0{fill-rule:evenodd;clip-rule:evenodd;fill:#FF5C00;}
</style>
<g>
	<g>
		<path class="st0" d="M103.5,31.3h304.9c10.8,0,19.5,8.7,19.5,19.6v419.8c0,12.7-1,13.1-10.8,5.1L265.9,352.2
			c-5.8-4.7-14-4.7-19.8,0L94.8,475.7c-9.8,8-10.8,7.6-10.8-5.1V50.8C84.1,40,92.8,31.3,103.5,31.3z M52.8,470.6
			c0,39.1,31.5,54.1,61.8,29.4l141.8-115.2l141,115.2c30.2,24.7,61.8,9.7,61.8-29.4V50.8c0-28.1-22.7-50.8-50.8-50.8H103.5
			c-28,0-50.8,22.8-50.8,50.8L52.8,470.6z"/>
		<path class="st0" d="M210.8,265.5l2.2-42.5c0.2-3.8-1-7.6-3.4-10.6l-26.2-33.1l40.5-10.9c3.7-1,6.9-3.3,9-6.6l23.3-35.3l23,35.3
			c2.1,3.2,5.3,5.6,9,6.6l40.8,11.2l-26.5,32.9c-2.4,3-3.6,6.8-3.4,10.6l2.8,42.6l-40.2-15.4c-3.6-1.4-7.6-1.4-11.2,0L210.8,265.5z
			 M312.4,303.2c10.6,4,21.8-4.1,21.2-15.4l-3-60.4l37.9-46.9c7.1-8.8,2.8-22-8.1-24.9L302,139.7l-32.9-50.6c-6.2-9.5-20-9.5-26.2,0
			l-32.8,50.6l-58.5,15.8c-10.9,2.9-15.2,16.1-8.1,24.9l38,46.8l-3.1,60.6c-0.6,11.3,10.6,19.4,21.2,15.4l56.4-21.7L312.4,303.2z"/>
	</g>
</g>
</svg>
