<svg fill="none" height="512" viewBox="0 0 36 36" width="512" xmlns="http://www.w3.org/2000/svg"><g id="36 Multicolor / Flag / mc_36_flag_china"><g id="mc_36_flag_China"><path id="Oval" d="m18 36c9.9411 0 18-8.0589 18-18 0-9.94113-8.0589-18-18-18-9.94113 0-18 8.05887-18 18 0 9.9411 8.05887 18 18 18z" fill="#d80027"/><path id="Shape" clip-rule="evenodd" d="m21.25 9.95704.14-1.877-.001-.009-1.216 1.44-1.75-.7.998 1.59596-1.216 1.44 1.835-.45.99 1.603.135-1.893 1.835-.45zm-11.399 1.00106-.001-.0031h.002zm0 0 1.553 4.7769h5.027l-4.064 2.96 1.554 4.78-4.07-2.953-4.07 2.953 1.56-4.78-4.07-2.96h5.027zm15.313 7.9139.612 1.786 1.884-.02-1.512 1.125.605 1.786-1.54-1.1-1.512 1.132.563-1.8-1.54-1.1 1.884-.028.555-1.8zm-4.092 4.078v.0005l-1.026 1.5805-1.82-.485 1.188 1.47-1.02 1.582 1.758-.682 1.188 1.463-.105-1.884 1.765-.675-1.83-.486-.098-1.8835.001-.0015zm2.798-10.175 1.35 1.315 1.666-.88-.83 1.695 1.35 1.315-1.863-.267-.83 1.688-.323-1.856-1.87-.267 1.673-.88z" fill="#ffda44" fill-rule="evenodd"/></g></g></svg>