<?xml version="1.0" encoding="utf-8"?>
<!-- Generator: Adobe Illustrator 26.0.2, SVG Export Plug-In . SVG Version: 6.00 Build 0)  -->
<svg version="1.1" id="Layer_1" xmlns="http://www.w3.org/2000/svg" xmlns:xlink="http://www.w3.org/1999/xlink" x="0px" y="0px"
	 viewBox="0 0 512 348.7" style="enable-background:new 0 0 512 348.7;" xml:space="preserve">
<style type="text/css">
	.st0{fill:#FF5C00;}
</style>
<path class="st0" d="M504.5,316h-7V150h7c4.1,0,7.5-3.4,7.5-7.5c0-4.1-3.4-7.5-7.5-7.5h-51.3c-4.1,0-7.5,3.4-7.5,7.5
	c0,4.1,3.4,7.5,7.5,7.5h29.3v166H321.9c-4.1,0-7.5,3.4-7.5,7.5c0,4.1,3.4,7.5,7.5,7.5h26.5h15h141.1c4.1,0,7.5-3.4,7.5-7.5
	C512,319.4,508.6,316,504.5,316z"/>
<path class="st0" d="M418.3,135H141.6c-4.1,0-7.5,3.4-7.5,7.5s3.4,7.5,7.5,7.5h7v33.6c0,4.1,3.4,7.5,7.5,7.5s7.5-3.4,7.5-7.5V150
	h254.6c4.1,0,7.5-3.4,7.5-7.5S422.4,135,418.3,135z"/>
<path class="st0" d="M185.2,178v110c0,4.1,3.4,7.5,7.5,7.5s7.5-3.4,7.5-7.5V178c0-4.1-3.4-7.5-7.5-7.5S185.2,173.9,185.2,178z"/>
<path class="st0" d="M222.4,178v110c0,4.1,3.4,7.5,7.5,7.5s7.5-3.4,7.5-7.5V178c0-4.1-3.4-7.5-7.5-7.5S222.4,173.9,222.4,178z"/>
<path class="st0" d="M259.7,178v110c0,4.1,3.4,7.5,7.5,7.5s7.5-3.4,7.5-7.5V178c0-4.1-3.4-7.5-7.5-7.5S259.7,173.9,259.7,178z"/>
<path class="st0" d="M311.9,178c0-4.1-3.4-7.5-7.5-7.5s-7.5,3.4-7.5,7.5v110c0,4.1,3.4,7.5,7.5,7.5s7.5-3.4,7.5-7.5V178z"/>
<path class="st0" d="M334.2,178v110c0,4.1,3.4,7.5,7.5,7.5s7.5-3.4,7.5-7.5V178c0-4.1-3.4-7.5-7.5-7.5S334.2,173.9,334.2,178z"/>
<path class="st0" d="M371.4,178v110c0,4.1,3.4,7.5,7.5,7.5s7.5-3.4,7.5-7.5V178c0-4.1-3.4-7.5-7.5-7.5S371.4,173.9,371.4,178z"/>
<path class="st0" d="M416.1,170.5c-4.1,0-7.5,3.4-7.5,7.5v110c0,4.1,3.4,7.5,7.5,7.5s7.5-3.4,7.5-7.5V178
	C423.6,173.9,420.3,170.5,416.1,170.5z"/>
<path class="st0" d="M460.9,288V178c0-4.1-3.4-7.5-7.5-7.5s-7.5,3.4-7.5,7.5v110c0,4.1,3.4,7.5,7.5,7.5S460.9,292.1,460.9,288z"/>
<path class="st0" d="M504.5,60.3h-49.8L471.6,35h32.9c4.1,0,7.5-3.4,7.5-7.5s-3.4-7.5-7.5-7.5H82V7.5C82,3.4,78.7,0,74.5,0
	S67,3.4,67,7.5V20H47V7.5C47,3.4,43.7,0,39.5,0S32,3.4,32,7.5V20H7.5C3.4,20,0,23.4,0,27.5v40.3c0,4.1,3.4,7.5,7.5,7.5H32v46
	c-18.2,3.5-32,19.6-32,38.8c0,21.8,17.7,39.5,39.5,39.5S79,182,79,160.2c0-4.1-3.4-7.5-7.5-7.5S64,156,64,160.2
	c0,13.5-11,24.5-24.5,24.5S15,173.7,15,160.2s11-24.5,24.5-24.5c4.1,0,7.5-3.4,7.5-7.5V75.3h20v12.5c0,4.1,3.4,7.5,7.5,7.5
	S82,92,82,87.8V75.3h422.5c4.1,0,7.5-3.4,7.5-7.5S508.6,60.3,504.5,60.3L504.5,60.3z M436.7,60.3h-24.1L429.5,35h24.1L436.7,60.3z
	 M177,35h24.1l-16.9,25.3h-24.1L177,35z M142.1,60.3h-24L134.9,35h24L142.1,60.3z M219.1,35h24l-16.9,25.3h-24L219.1,35z M261.1,35
	h24.1l-16.9,25.3h-24.1L261.1,35z M303.3,35h24l-16.9,25.3h-24L303.3,35z M345.3,35h24.1l-16.9,25.3h-24.1L345.3,35z M387.4,35h24
	l-16.9,25.3h-24L387.4,35z M15,60.3V35h17v25.3H15z M47,60.3V35h20v25.3H47z M82,35h34.9L100,60.3H82V35z"/>
<path class="st0" d="M287.3,316H163.6v-97.1c0-4.1-3.2-7.7-7.3-7.8c-4.2-0.1-7.7,3.3-7.7,7.5V316h-6.9c-4.1,0-7.5,3.4-7.5,7.5l0,0
	c0,4.1,3.4,7.5,7.5,7.5h145.9c4.2,0,7.6-3.5,7.5-7.7C294.9,319.2,291.4,316,287.3,316z"/>
</svg>
