<?xml version="1.0" encoding="utf-8"?>
<!-- Generator: Adobe Illustrator 26.0.2, SVG Export Plug-In . SVG Version: 6.00 Build 0)  -->
<svg version="1.1" id="svg8" xmlns:svg="http://www.w3.org/2000/svg"
	 xmlns="http://www.w3.org/2000/svg" xmlns:xlink="http://www.w3.org/1999/xlink" x="0px" y="0px" viewBox="0 0 512 512"
	 style="enable-background:new 0 0 512 512;" xml:space="preserve">
<style type="text/css">
	.st0{fill-rule:evenodd;clip-rule:evenodd;fill:#FF5C00;}
</style>
<g id="layer1" transform="translate(0 -161.533)">
	<path id="path4966" vector-effect="none" class="st0" d="M293,199.3c-0.5,0-1,0.1-1.5,0.2H175.3c-5.5,0-10,4.5-10,10v231.9
		c-0.1,5.5,4.2,10.2,9.8,10.3c5.5,0.1,10.2-4.2,10.3-9.8c0-0.2,0-0.3,0-0.5V219.6h97.7v76.6c-0.5,2.9,0.4,5.9,2.3,8.1
		c0,0,0,0.1,0,0.1c0.2,0.3,0.4,0.5,0.7,0.7c0.5,0.5,1,0.9,1.6,1.3c2.9,1.9,6.5,2.2,9.6,0.8c0.1,0,0.1-0.1,0.2-0.1l27.5-8.2l28.8,8.6
		c5.3,1.6,10.9-1.4,12.5-6.7c0.3-0.9,0.4-1.9,0.4-2.9v-66.7c0-5.5-4.5-10-10-10.1c-5.5,0-10,4.5-10.1,10c0,0,0,0,0,0v53.2l-18.8-5.6
		c-1.9-0.5-3.8-0.5-5.7,0l-18.8,5.6v-64.7h154.3v272.1h-29.8c-5.5,0-10,4.5-10.1,10c0,5.5,4.5,10,10,10.1c0,0,0,0,0,0h39.8
		c5.5,0,10-4.5,10-10c0,0,0,0,0,0V209.6c0-5.5-4.5-10-10-10c0,0,0,0,0,0H294.8C294.2,199.4,293.6,199.3,293,199.3L293,199.3z
		 M361.6,385.6c-5.5,0-10,4.5-10.1,10c0,5.5,4.5,10,10,10.1c0,0,0,0,0,0h69.9c5.5,0,10-4.5,10.1-10c0-5.5-4.5-10-10-10.1
		c0,0,0,0,0,0H361.6z M361.6,416.1c-5.5,0-10.1,4.5-10.1,10c0,5.5,4.5,10.1,10,10.1c0,0,0,0,0.1,0h69.9c5.5,0,10.1-4.5,10.1-10
		c0-5.5-4.5-10.1-10-10.1c0,0,0,0-0.1,0H361.6z M250.7,449.4c-8.5,0.2-17.9,1.9-27.8,3.9c-15.8,3.3-31.9,8.2-43.5,12.6
		c-17,6.5-42.9,20.9-56.9,29v-3.3c0-4.3-3.1-8-7.3-8.8l-70.3-12.7c-0.6-0.1-1.2-0.2-1.8-0.2v0c-4.8,0.1-8.7,4.1-8.7,8.9v38.2
		c-0.3,4.9,3.5,9.1,8.4,9.4c4.9,0.3,9.1-3.5,9.4-8.4c0-0.3,0-0.7,0-1v-27.5l52.4,9.5V606l-52.4,10v-63.1c0.3-4.9-3.5-9.1-8.4-9.4
		c-4.9-0.3-9.1,3.5-9.4,8.4c0,0.3,0,0.7,0,1v73.9c0,4.9,4,8.9,8.9,8.9c0.6,0,1.1-0.1,1.7-0.2l70.3-13.5c4.2-0.8,7.2-4.5,7.2-8.8
		v-4.2c7.5,1.4,41.4,7.6,82.2,13.3c4.8,0.9,9.5-2.2,10.4-7.1c0.9-4.8-2.2-9.5-7.1-10.4c-0.3-0.1-0.6-0.1-0.9-0.1
		c-43-5.9-81.3-13.1-84.7-13.7v-75.5c1.7-1,43.6-25.4,63.3-33c10.5-4,26.1-8.7,40.8-11.8c14.7-3.1,29.2-4.1,34-2.8
		c6.4,1.6,7.4,3.6,7.6,4.7c0.2,1.1-0.3,4.8-5.4,10.3c-4.3,4.7-18.6,14.2-30.9,21.4c-12.4,7.2-23.2,12.8-23.2,12.8
		c-4.4,2.2-6.1,7.6-3.9,12c1,1.9,2.6,3.4,4.5,4.2c0,0,16.7,7,35.6,14c9.4,3.5,19.5,7.1,28.3,9.8c8.9,2.7,16.1,4.7,22.7,4.7
		c8.3,0,14.8-3.9,23-8.6c8.1-4.7,17.1-10.7,25.9-16.7c8.8-6,17.4-12.1,24.6-16.6c7.1-4.5,13.9-7.3,13.6-7.2
		c5.4-0.8,10.1,0.3,12.9,2.3c2.8,2,4.7,4.9,4.5,11.4c0-0.8-0.3,1.2-2,3.9c-1.7,2.7-4.3,6.2-7.7,10.1c-6.8,7.8-16.5,17.1-26.9,26.3
		c-20.9,18.4-45.5,36.7-56.3,42.7c-0.6,0.3-5.2,1.7-11.6,2.1c-6.4,0.4-14.7,0.3-24.2-0.2c-9.4-0.5-19.9-1.4-30.9-2.6
		c-4.9-0.8-9.4,2.6-10.2,7.4s2.6,9.4,7.4,10.2c0.3,0,0.5,0.1,0.8,0.1c11.2,1.2,22,2.2,31.8,2.7c9.9,0.5,18.8,0.6,26.3,0.2
		c7.5-0.5,13.5-1.1,19.1-4.2c13.8-7.7,37.7-25.9,59.3-45c10.8-9.5,20.9-19.2,28.6-27.9c3.8-4.4,7-8.4,9.5-12.4
		c2.5-4,4.5-7.7,4.6-12.9c0.3-11.2-4.4-20.8-11.9-26.2c-7.5-5.4-16.8-6.9-25.9-5.5c-7.5,1.1-12.9,5-20.6,9.8
		c-7.7,4.9-16.4,10.9-25.1,16.9c-8.7,6-17.4,11.8-24.7,15.9c-7.3,4.2-14,6.2-14.1,6.2c-1.8,0-9.3-1.4-17.6-4
		c-8.3-2.5-18.1-6-27.3-9.4c-9.3-3.4-11.1-4.3-17.5-6.9c3.3-1.8,3.4-1.7,7.3-4c12.8-7.5,26.9-16,35-24.7c7.3-7.9,11.8-16.9,9.8-26.2
		c-2-9.3-10.5-15.5-20.6-18.1C260.6,449.6,255.9,449.2,250.7,449.4L250.7,449.4z M291.7,491.7c-5.5,0-10.1,4.5-10.1,10
		c0,5.5,4.5,10.1,10,10.1c0,0,0,0,0,0h43.4c5.5,0,10.1-4.5,10.1-10c0-5.5-4.5-10.1-10-10.1c0,0,0,0,0,0H291.7z"/>
</g>
</svg>
