<?xml version="1.0" encoding="utf-8"?>
<!-- Generator: Adobe Illustrator 26.0.2, SVG Export Plug-In . SVG Version: 6.00 Build 0)  -->
<svg version="1.1" id="Layer_2" xmlns="http://www.w3.org/2000/svg" xmlns:xlink="http://www.w3.org/1999/xlink" x="0px" y="0px"
	 viewBox="0 0 512 512" style="enable-background:new 0 0 512 512;" xml:space="preserve">
<style type="text/css">
	.st0{fill:#FF5E00;}
</style>
<path class="st0" d="M502.3,297.3l-112-48c-4-1.7-8.6-1.7-12.6,0l-112,48c-5.9,2.5-9.7,8.3-9.7,14.7v136c0,6.4,3.8,12.2,9.7,14.7
	l112,48c4,1.7,8.6,1.7,12.6,0l112-48c5.9-2.5,9.7-8.3,9.7-14.7V312C512,305.6,508.2,299.8,502.3,297.3z M384,342.6l-16.6-7.1
	l68.7-31.7l19.3,8.3L384,342.6z M384,281.4l12.5,5.4l-68.7,31.7l-15.1-6.5L384,281.4z M288,336.3l24,10.3V392c0,8.8,7.2,16,16,16
	s16-7.2,16-16v-31.7l24,10.3v101.2l-80-34.3V336.3z M400,471.7V370.6l80-34.3v101.2L400,471.7z M223.7,388.7
	c1.8,8.7-3.8,17.1-12.4,18.9L88,433.3c-4.9,1-10,1.5-15,1.6c-40.4-0.1-73-32.8-73-73.2c0-31.8,20.7-60,51-69.6l400.4-126.8
	c21.6-6.8,33.5-29.9,26.7-51.4c-6.4-20.1-26.9-32-47.5-27.7l-195.2,41.4c-8.6,1.8-17.1-3.7-19-12.3s3.7-17.1,12.3-19l195.2-41.4
	c39.4-8.4,78.1,16.8,86.5,56.2c7.8,36.7-13.6,73.4-49.3,84.7L60.7,322.6c-21.6,6.9-33.6,29.9-26.8,51.6
	c6.4,20.1,26.9,32.1,47.5,27.8l123.3-25.7C213.4,374.5,221.8,380,223.7,388.7C223.7,388.7,223.7,388.7,223.7,388.7z M88.8,238.3
	c4.5,2.2,9.8,2.2,14.3,0c3.6-1.8,88.8-45.5,88.8-142.3c0-53-43-96-96-96S0,43,0,96C0,192.8,85.2,236.5,88.8,238.3z M96,32
	c35.3,0,64,28.7,64,64c0,62.9-45.9,98.1-64,109.5C77.8,194,32,158.8,32,96C32,60.7,60.7,32,96,32z M72,104c0-13.3,10.7-24,24-24
	s24,10.7,24,24s-10.7,24-24,24S72,117.3,72,104z"/>
</svg>
