<?xml version="1.0" encoding="utf-8"?>
<!-- Generator: Adobe Illustrator 26.0.2, SVG Export Plug-In . SVG Version: 6.00 Build 0)  -->
<svg version="1.1" id="Capa_1" xmlns="http://www.w3.org/2000/svg" xmlns:xlink="http://www.w3.org/1999/xlink" x="0px" y="0px"
	 viewBox="0 0 512 512" style="enable-background:new 0 0 512 512;" xml:space="preserve">
<style type="text/css">
	.st0{fill:#FF5C00;}
</style>
<g>
	<g>
		<path class="st0" d="M352,236h-40v-40h-40v80h80V236z M152,116H32v40h120V116z M292,36H72v40h220c99.3,0,180,80.7,180,180
			s-80.7,180-180,180H72v40h220c121.6,0,220-98.4,220-220C512,134.4,413.6,36,292,36z M292,396c77.2,0,140-62.8,140-140
			s-62.8-140-140-140s-140,62.8-140,140S214.8,396,292,396z M292,156c55.1,0,100,44.9,100,100s-44.9,100-100,100s-100-44.9-100-100
			S236.9,156,292,156z M152,356H32v40h120V356z M112,236H0v40h112V236z"/>
	</g>
</g>
</svg>
