<?xml version="1.0" encoding="utf-8"?>
<!-- Generator: Adobe Illustrator 26.0.2, SVG Export Plug-In . SVG Version: 6.00 Build 0)  -->
<svg version="1.1" id="Слой_1" xmlns="http://www.w3.org/2000/svg" xmlns:xlink="http://www.w3.org/1999/xlink" x="0px" y="0px"
	 viewBox="0 0 151 155" style="enable-background:new 0 0 151 155;" xml:space="preserve">
<style type="text/css">
	.st0{fill:#FF5E00;}
</style>
<path class="st0" d="M74.6,21.4c31,0,56.2,25.2,56.2,56.2s-25.2,56.2-56.2,56.2c-31,0-56.2-25.2-56.2-56.2S43.6,21.4,74.6,21.4
	 M74.6,10.7c-37,0-66.9,30-66.9,66.9s30,66.9,66.9,66.9s66.9-30,66.9-66.9S111.6,10.7,74.6,10.7L74.6,10.7z"/>
<path class="st0" d="M74.6,49.7c15.4,0,27.9,12.5,27.9,27.9S90,105.6,74.6,105.6S46.7,93,46.7,77.6S59.2,49.7,74.6,49.7 M74.6,42.6
	c-19.3,0-35,15.7-35,35s15.7,35,35,35c19.3,0,35-15.7,35-35S93.9,42.6,74.6,42.6L74.6,42.6z"/>
<path class="st0" d="M72.5,90.4c-1.3,0-2.5-0.6-3.3-1.6L60,77.5c-1.5-1.8-1.2-4.5,0.6-6c1.8-1.5,4.5-1.2,6,0.6l5.9,7.2l10.2-12.8
	c1.5-1.8,4.1-2.2,6-0.7s2.2,4.1,0.7,6l-13.5,17C75,89.8,73.8,90.4,72.5,90.4C72.5,90.4,72.5,90.4,72.5,90.4z"/>
<path class="st0" d="M81.3,31.1l3.7,4.7c0.6,0.8,1.5,1.2,2.5,1.2c0.3,0,0.7-0.1,1-0.2l5.7-2l2.2,5.6c0.5,1.2,1.6,2,2.9,2
	c0.1,0,0.1,0,0.2,0l6-0.3l0.6,6c0.1,1.3,1.1,2.4,2.4,2.8l5.8,1.4l-1.1,5.9c-0.3,1.3,0.4,2.6,1.5,3.3l5.2,3l-2.8,5.3
	c-0.6,1.2-0.4,2.6,0.5,3.6l4.2,4.3l-4.2,4.3c-0.9,1-1.1,2.4-0.5,3.6l2.8,5.3l-5.2,3c-1.2,0.7-1.8,2-1.5,3.3l1.1,5.9l-5.8,1.4
	c-1.3,0.3-2.3,1.4-2.4,2.8l-0.6,6l-6-0.3c-0.1,0-0.1,0-0.2,0c-1.3,0-2.4,0.8-2.9,2l-2.2,5.6l-5.7-2c-0.3-0.1-0.7-0.2-1-0.2
	c-0.9,0-1.9,0.4-2.5,1.2l-3.7,4.7l-4.9-3.5c-0.5-0.4-1.2-0.6-1.8-0.6c-0.6,0-1.3,0.2-1.8,0.6l-4.9,3.5l-3.7-4.7
	c-0.6-0.8-1.5-1.2-2.5-1.2c-0.3,0-0.7,0.1-1,0.2l-5.7,2l-2.2-5.6c-0.5-1.2-1.6-2-2.9-2c-0.1,0-0.1,0-0.2,0l-6,0.3l-0.6-6
	c-0.1-1.3-1.1-2.4-2.4-2.8l-5.8-1.4l1.1-5.9c0.3-1.3-0.4-2.6-1.5-3.3l-5.2-3l2.8-5.3c0.6-1.2,0.4-2.6-0.5-3.6l-4.2-4.3l4.2-4.3
	c0.9-1,1.1-2.4,0.5-3.6l-2.8-5.3l5.2-3c1.2-0.7,1.8-2,1.5-3.3L35,52.2l5.8-1.4c1.3-0.3,2.3-1.4,2.4-2.8l0.6-6l6,0.3
	c0.1,0,0.1,0,0.2,0c1.3,0,2.4-0.8,2.9-2l2.2-5.6l5.7,2c0.3,0.1,0.7,0.2,1,0.2c0.9,0,1.9-0.4,2.5-1.2l3.7-4.7l4.9,3.5
	c0.5,0.4,1.2,0.6,1.8,0.6c0.6,0,1.3-0.2,1.8-0.6L81.3,31.1 M67.3,26.8l-5.5,7.1l-8.5-3l-3.3,8.4l-9-0.4l-0.8,9l-8.8,2.1l1.7,8.8
	l-7.8,4.5l4.2,8l-6.2,6.5l6.2,6.5l-4.2,8l7.8,4.5l-1.7,8.8l8.8,2.1l0.8,9l9-0.4l3.3,8.4l8.5-3l5.5,7.1l7.3-5.2l7.3,5.2l5.5-7.1
	l8.5,3l3.3-8.4l9,0.4l0.8-9l8.8-2.1l-1.7-8.8l7.8-4.5l-4.2-8l6.2-6.5l-6.2-6.5l4.2-8l-7.8-4.5l1.7-8.8l-8.8-2.1l-0.8-9l-9,0.4
	L96,30.9l-8.5,3l-5.5-7.1L74.6,32L67.3,26.8L67.3,26.8z"/>
</svg>
