<?xml version="1.0" encoding="utf-8"?>
<!-- Generator: Adobe Illustrator 26.0.2, SVG Export Plug-In . SVG Version: 6.00 Build 0)  -->
<svg version="1.1" id="Слой_1" xmlns="http://www.w3.org/2000/svg" xmlns:xlink="http://www.w3.org/1999/xlink" x="0px" y="0px"
	 viewBox="0 0 215.6 54.7" style="enable-background:new 0 0 215.6 54.7;" xml:space="preserve">
<style type="text/css">
	.st0{fill:#CED5ED;}
	
		.st1{clip-path:url(#SVGID_00000016790844038275412470000006575010802004830905_);fill:url(#SVGID_00000073700005455838187820000009509106485226083729_);}
	.st2{fill:#727DBC;}
	
		.st3{clip-path:url(#SVGID_00000006689726025028097950000011507471652958354818_);fill:url(#SVGID_00000044899261753056266280000003274164634761811594_);}
</style>
<path class="st0" d="M34.2,5.1c0.7,0.3,1.4,0.9,2,1.3l3.4,2.3c3.6,2.5,7.2,4.8,10.8,7.3l0,3.8l-3,2.8c-1.1,1.1-2.3,2.1-3.6,3.1
	c0-2.2,0-4.3,0-6.5c-2.5-1.6-5-3.2-7.4-4.9c-0.7-0.5-1.6-1-2.3-1.5C34.2,10.3,34.1,7.7,34.2,5.1"/>
<g>
	<defs>
		<path id="SVGID_1_" d="M55.9,14.9c0,0.4-0.3,1.1-0.5,1.5c-1.3,3.8-3.8,6.9-6.3,10c-1.9,2.5-4,4.8-6.2,7.1
			c-6.1,6.2-15.7,14.3-24.9,14.3c-4,0-7.4-1.7-10.2-4.5c-0.8-0.8-1.5-1.6-2-2.6c0.2,0.2,0.4,0.3,0.6,0.5c3.1,2.2,6.8,2.7,10.5,2.1
			c10.2-1.7,21.9-10.6,29.4-17.6c1.4-1.3,2.8-2.6,4.1-4c1-1.1,1.9-2.2,2.8-3.3C54.2,17.2,55.1,16.1,55.9,14.9"/>
	</defs>
	<clipPath id="SVGID_00000105428711901530385680000013409121828247799718_">
		<use xlink:href="#SVGID_1_"  style="overflow:visible;"/>
	</clipPath>
	
		<linearGradient id="SVGID_00000075128481080686477860000007169903403115985086_" gradientUnits="userSpaceOnUse" x1="5.8745" y1="31.31" x2="55.9014" y2="31.31">
		<stop  offset="0" style="stop-color:#F7A400"/>
		<stop  offset="1" style="stop-color:#EA5A06"/>
	</linearGradient>
	
		<rect x="5.9" y="14.9" style="clip-path:url(#SVGID_00000105428711901530385680000013409121828247799718_);fill:url(#SVGID_00000075128481080686477860000007169903403115985086_);" width="50" height="32.9"/>
</g>
<path class="st2" d="M50.9,26C50.9,26,50.9,26.1,50.9,26c0.2,0.7,0.1,1.7,0.1,2.3c0,0.3,0,0.6,0,0.8c0,0.3,0,0.6,0,0.8
	c0,0.3,0,0.6-0.1,0.8c0,0.3-0.1,0.6-0.1,0.8c0,0.3-0.1,0.6-0.1,0.8c0,0.3-0.1,0.5-0.2,0.8c-0.1,0.3-0.1,0.5-0.2,0.8
	c-0.1,0.3-0.1,0.5-0.2,0.8c-0.1,0.3-0.2,0.5-0.2,0.8c-0.1,0.3-0.2,0.5-0.3,0.8c-0.1,0.3-0.2,0.5-0.3,0.8c-0.1,0.3-0.2,0.5-0.3,0.8
	c-0.1,0.3-0.2,0.5-0.3,0.8c-0.1,0.3-0.2,0.5-0.4,0.8c-0.1,0.2-0.3,0.5-0.4,0.7c-0.1,0.2-0.3,0.5-0.4,0.7c-0.1,0.2-0.2,0.3-0.3,0.5
	c-0.1,0.2-0.2,0.3-0.3,0.5c-0.1,0.2-0.2,0.3-0.3,0.5c-0.1,0.2-0.2,0.3-0.3,0.5c-0.1,0.2-0.2,0.3-0.4,0.5c-0.1,0.2-0.2,0.3-0.4,0.5
	c-0.1,0.2-0.3,0.3-0.4,0.5c-0.1,0.1-0.3,0.3-0.4,0.4c-0.1,0.1-0.3,0.3-0.4,0.4c-0.1,0.1-0.3,0.3-0.4,0.4c-0.1,0.1-0.3,0.3-0.4,0.4
	c-0.1,0.1-0.3,0.3-0.4,0.4c-0.1,0.1-0.3,0.3-0.4,0.4c-0.1,0.1-0.3,0.3-0.5,0.4c-0.2,0.1-0.3,0.3-0.5,0.4c-0.2,0.1-0.3,0.2-0.5,0.4
	s-0.3,0.2-0.5,0.3c-0.2,0.1-0.3,0.2-0.5,0.3c-0.2,0.1-0.3,0.2-0.5,0.3c-0.2,0.1-0.3,0.2-0.5,0.3c-0.2,0.1-0.3,0.2-0.5,0.3
	c-0.2,0.1-0.3,0.2-0.5,0.3c-0.2,0.1-0.3,0.2-0.5,0.3c-0.2,0.1-0.4,0.2-0.5,0.3c-0.2,0.1-0.4,0.2-0.5,0.3c-0.2,0.1-0.4,0.2-0.5,0.2
	c-0.2,0.1-0.4,0.2-0.5,0.2c-0.2,0.1-0.4,0.1-0.6,0.2c-0.2,0.1-0.4,0.1-0.6,0.2c-0.2,0.1-0.4,0.1-0.6,0.2c-0.2,0.1-0.4,0.1-0.6,0.2
	c-0.2,0.1-0.4,0.1-0.6,0.2c-6.8,1.7-12.9,0.5-18.9-3.1c-0.5-0.3-1.9-1.1-2.1-1.5c0.3,0.1,1.4,0.7,1.9,0.9c2.4,0.9,4.9,1.1,7.4,0.8
	c8.1-1.2,17.3-8.7,22.8-14.5C46.3,32,48.6,29,50.9,26"/>
<path class="st0" d="M20,4.8C20,4.8,20,4.8,20,4.8c0.1,0.2,0.1,7.3,0.1,8c-3.2,2.3-6.5,4.5-9.7,6.9l0,6.3c0,2.8-0.2,5.7,0.7,8.3
	c1.5,4.1,4.5,5,8.1,6.7c-2.1,0.4-4,0.7-6.2,0.6c-2.2-0.2-4.3-1-5.8-2.6C5.9,37.7,5,35.8,4.5,34c-0.7-2.7-0.4-5.6-0.4-8.3l0-9.4
	c1.7-1.1,3.3-2.4,4.9-3.5C12.7,10.1,16.4,7.5,20,4.8"/>
<path class="st2" d="M20,14.8c0.2,0.3,0.1,1.8,0.1,2.2l0,7.8c0,1.9-0.2,4.1,0.3,5.9c0,0.1,0.1,0.3,0.1,0.4c0,0.1,0.1,0.3,0.1,0.4
	c0.1,0.1,0.1,0.3,0.2,0.4s0.1,0.3,0.2,0.4c0.1,0.1,0.1,0.3,0.2,0.4c0.1,0.1,0.2,0.2,0.3,0.4c0.1,0.1,0.2,0.2,0.3,0.3
	c0.1,0.1,0.2,0.2,0.3,0.3c1.3,1.4,3,2,4.9,2c0.1,0,0.2,0,0.4,0c0.1,0,0.2,0,0.4,0c0.1,0,0.2,0,0.4,0c0.1,0,0.2,0,0.4-0.1
	c0.1,0,0.2,0,0.3-0.1c0.1,0,0.2-0.1,0.3-0.1c0.1,0,0.2-0.1,0.3-0.1c0.1,0,0.2-0.1,0.3-0.1c0.1,0,0.2-0.1,0.3-0.1
	c0.1,0,0.2-0.1,0.3-0.2c0.1-0.1,0.2-0.1,0.3-0.2c0.1-0.1,0.2-0.1,0.3-0.2c0.1-0.1,0.2-0.1,0.3-0.2c0.1-0.1,0.2-0.1,0.3-0.2
	c0.1-0.1,0.2-0.1,0.3-0.2c0.1-0.1,0.2-0.2,0.3-0.2c0.9-0.9,1.6-2.1,1.9-3.3c0.4-1.6,0.2-3.9,0.2-5.5c0-3.4-0.1-6.7,0-10.1
	c2.7,1.7,5.3,3.5,7.9,5.3l0,7.1c-0.1,0.3-1.8,1.4-2.2,1.8c-4.4,3.4-8.9,6.7-13.8,9.2c-1.4,0.7-2.9,1.4-4.4,2
	c-2.1-1.1-5.7-2.3-7.3-3.9c-1.1-1.1-1.7-2.5-2-3.9c-0.4-1.8-0.2-3.8-0.2-5.7l0-6.5c0.8-0.5,1.6-1.1,2.4-1.7l3.5-2.5
	C18.7,15.7,19.3,15.2,20,14.8"/>
<g>
	<defs>
		<path id="SVGID_00000165216165823504788400000002418275382822110629_" d="M196.9,37.9h14.6v-4h-9.9v-3.4h8.8v-3.6h-8.8v-3.2h9.7
			v-3.8h-14.4V37.9z M193.9,28h-7.6v3.5h3.3c-0.3,1.6-1.8,2.7-4.1,2.7c-3,0-4.2-2.7-4.2-5.4c0-2.7,1.2-5.4,4.2-5.4
			c1.9,0,3.4,0.9,3.6,2.5h4.7c-0.4-4.5-4.4-6.5-8.2-6.5c-5.5,0-9,4.2-9,9.4c0,5.2,3.5,9.4,9,9.4c1.6,0,3.8-0.6,5-2.3l0.3,2h3V28z
			 M158.1,37.9h7.7c5.5,0,8.8-3.2,8.8-9.1c0-5.6-3.3-8.9-8.8-8.9h-7.7V37.9z M162.8,23.9h2.2c3.2,0,5,1.6,5,4.9c0,3.6-1.4,5-5,5.1
			h-2.2V23.9z M150.2,37.9h4.7v-18h-4.7V37.9z M131.9,37.9h4.7v-6.6h3.6c2.2,0,2.5,1.9,2.6,3.7c0.1,0.5,0.1,2.2,0.5,2.9h4.6
			c-0.6-0.7-0.7-3.3-0.8-4.1c-0.1-1.7-0.7-3.8-2.6-4.3v-0.1c1.9-0.7,2.8-2.6,2.8-4.5c0-3.6-3.2-5.1-6.3-5.1h-9.2V37.9z M136.6,23.6
			h3.7c1.3,0,2.4,0.6,2.4,1.9c0,1.4-0.8,2.1-2.2,2.1h-3.9V23.6z M118.4,30h3.8c1.4,0,2.5,0.5,2.5,2.1c0,1.5-1,2-2.5,2h-3.8V30z
			 M113.7,37.9h8.7c3.9,0,7-1.3,7-5.6c0-2-1.2-3.7-3.1-4.3c1.4-0.7,2.4-2,2.4-3.6c0-3.7-3.4-4.6-6.5-4.5h-8.4V37.9z M118.4,23.5h3.6
			c1,0,1.9,0.4,1.9,1.7c0,1.3-1.1,1.7-1.9,1.7h-3.6V23.5z M105.8,37.9h4.7v-18h-4.7V37.9z M87,37.9h4.4V26.7h0.1l6.3,11.2h4.8v-18
			h-4.4V31h-0.1l-6.3-11.1H87V37.9z M83.9,19.9h-4.7v10.9c0,2.3-0.8,3.5-3.2,3.5c-2.3,0-3.2-1.2-3.2-3.5V19.9h-4.7v10.6
			c0,5.2,2.4,7.8,7.8,7.8c5.5,0,7.8-2.6,7.8-7.8V19.9z"/>
	</defs>
	<clipPath id="SVGID_00000114776719610719973970000008279887554535517850_">
		<use xlink:href="#SVGID_00000165216165823504788400000002418275382822110629_"  style="overflow:visible;"/>
	</clipPath>
	
		<linearGradient id="SVGID_00000150794428688219499460000008705919434635040404_" gradientUnits="userSpaceOnUse" x1="68.2253" y1="28.8837" x2="211.5141" y2="28.8837">
		<stop  offset="0" style="stop-color:#F59B00"/>
		<stop  offset="1" style="stop-color:#EB5D05"/>
	</linearGradient>
	
		<rect x="68.2" y="19.5" style="clip-path:url(#SVGID_00000114776719610719973970000008279887554535517850_);fill:url(#SVGID_00000150794428688219499460000008705919434635040404_);" width="143.3" height="18.8"/>
</g>
</svg>
