<?xml version="1.0" encoding="utf-8"?>
<!-- Generator: Adobe Illustrator 26.0.2, SVG Export Plug-In . SVG Version: 6.00 Build 0)  -->
<svg version="1.1" id="Слой_1" xmlns="http://www.w3.org/2000/svg" xmlns:xlink="http://www.w3.org/1999/xlink" x="0px" y="0px"
	 viewBox="0 0 215.6 54.7" style="enable-background:new 0 0 215.6 54.7;" xml:space="preserve">
<style type="text/css">
	.st0{fill:#2A2D87;}
	
		.st1{clip-path:url(#SVGID_00000173840804919904814410000010626358161700570000_);fill:url(#SVGID_00000039842501150915817070000010770225322149049781_);}
	.st2{fill:#26195C;}
</style>
<path class="st0" d="M34.9,5.1c0.7,0.3,1.4,0.9,2,1.3l3.4,2.3c3.6,2.5,7.2,4.8,10.8,7.3l0,3.8l-3,2.8c-1.1,1.1-2.3,2.1-3.6,3.1
	c0-2.2,0-4.3,0-6.5c-2.5-1.6-5-3.2-7.4-4.9c-0.7-0.5-1.6-1-2.3-1.5C34.9,10.3,34.8,7.7,34.9,5.1"/>
<g>
	<defs>
		<path id="SVGID_1_" d="M56.6,14.9c0,0.4-0.3,1.1-0.5,1.5c-1.3,3.8-3.8,6.9-6.3,10c-1.9,2.5-4,4.8-6.2,7.1
			C37.5,39.6,28,47.7,18.8,47.7c-4,0-7.4-1.7-10.2-4.5c-0.8-0.8-1.5-1.6-2-2.6c0.2,0.2,0.4,0.3,0.6,0.5c3.1,2.2,6.8,2.7,10.5,2.1
			c10.2-1.7,21.9-10.6,29.4-17.6c1.4-1.3,2.8-2.6,4.1-4c1-1.1,1.9-2.2,2.8-3.3C54.9,17.2,55.8,16.1,56.6,14.9"/>
	</defs>
	<clipPath id="SVGID_00000011005319963084218650000001318920243157023139_">
		<use xlink:href="#SVGID_1_"  style="overflow:visible;"/>
	</clipPath>
	
		<linearGradient id="SVGID_00000134233170964404122650000012291968460101019296_" gradientUnits="userSpaceOnUse" x1="6.5816" y1="31.3011" x2="56.6085" y2="31.3011">
		<stop  offset="0" style="stop-color:#F7A400"/>
		<stop  offset="1" style="stop-color:#EA5A06"/>
	</linearGradient>
	
		<rect x="6.6" y="14.9" style="clip-path:url(#SVGID_00000011005319963084218650000001318920243157023139_);fill:url(#SVGID_00000134233170964404122650000012291968460101019296_);" width="50" height="32.9"/>
</g>
<path class="st2" d="M51.6,26C51.6,26,51.6,26.1,51.6,26c0.2,0.7,0.1,1.7,0.1,2.3c0,0.3,0,0.6,0,0.8c0,0.3,0,0.6,0,0.8
	c0,0.3,0,0.6-0.1,0.8c0,0.3-0.1,0.6-0.1,0.8c0,0.3-0.1,0.6-0.1,0.8c0,0.3-0.1,0.5-0.2,0.8c-0.1,0.3-0.1,0.5-0.2,0.8
	c-0.1,0.3-0.1,0.5-0.2,0.8c-0.1,0.3-0.2,0.5-0.2,0.8c-0.1,0.3-0.2,0.5-0.3,0.8c-0.1,0.3-0.2,0.5-0.3,0.8c-0.1,0.3-0.2,0.5-0.3,0.8
	c-0.1,0.3-0.2,0.5-0.3,0.8c-0.1,0.3-0.2,0.5-0.4,0.8c-0.1,0.2-0.3,0.5-0.4,0.7c-0.1,0.2-0.3,0.5-0.4,0.7c-0.1,0.2-0.2,0.3-0.3,0.5
	c-0.1,0.2-0.2,0.3-0.3,0.5c-0.1,0.2-0.2,0.3-0.3,0.5c-0.1,0.2-0.2,0.3-0.3,0.5c-0.1,0.2-0.2,0.3-0.4,0.5c-0.1,0.2-0.2,0.3-0.4,0.5
	c-0.1,0.2-0.3,0.3-0.4,0.5c-0.1,0.1-0.3,0.3-0.4,0.4c-0.1,0.1-0.3,0.3-0.4,0.4c-0.1,0.1-0.3,0.3-0.4,0.4c-0.1,0.1-0.3,0.3-0.4,0.4
	c-0.1,0.1-0.3,0.3-0.4,0.4c-0.1,0.1-0.3,0.3-0.4,0.4c-0.1,0.1-0.3,0.3-0.5,0.4c-0.2,0.1-0.3,0.3-0.5,0.4c-0.2,0.1-0.3,0.2-0.5,0.4
	c-0.2,0.1-0.3,0.2-0.5,0.3c-0.2,0.1-0.3,0.2-0.5,0.3c-0.2,0.1-0.3,0.2-0.5,0.3c-0.2,0.1-0.3,0.2-0.5,0.3c-0.2,0.1-0.3,0.2-0.5,0.3
	c-0.2,0.1-0.3,0.2-0.5,0.3c-0.2,0.1-0.3,0.2-0.5,0.3c-0.2,0.1-0.4,0.2-0.5,0.3c-0.2,0.1-0.4,0.2-0.5,0.3c-0.2,0.1-0.4,0.2-0.5,0.2
	c-0.2,0.1-0.4,0.2-0.5,0.2c-0.2,0.1-0.4,0.1-0.6,0.2c-0.2,0.1-0.4,0.1-0.6,0.2c-0.2,0.1-0.4,0.1-0.6,0.2C34.4,51.9,34.2,52,34,52
	c-0.2,0.1-0.4,0.1-0.6,0.2c-6.8,1.7-12.9,0.5-18.9-3.1c-0.5-0.3-1.9-1.1-2.1-1.5c0.3,0.1,1.4,0.7,1.9,0.9c2.4,0.9,4.9,1.1,7.4,0.8
	c8.1-1.2,17.3-8.7,22.8-14.5C47,32,49.3,29,51.6,26"/>
<path class="st0" d="M20.7,4.8C20.7,4.8,20.7,4.8,20.7,4.8c0.1,0.2,0.1,7.3,0.1,8c-3.2,2.3-6.5,4.5-9.7,6.9l0,6.3
	c0,2.8-0.2,5.7,0.7,8.3c1.5,4.1,4.5,5,8.1,6.7c-2.1,0.4-4,0.7-6.2,0.6c-2.2-0.2-4.3-1-5.8-2.6c-1.4-1.4-2.3-3.2-2.8-5.1
	c-0.7-2.7-0.4-5.6-0.4-8.3l0-9.4c1.7-1.1,3.3-2.4,4.9-3.5C13.4,10.1,17.1,7.5,20.7,4.8"/>
<path class="st2" d="M20.7,14.8c0.2,0.3,0.1,1.8,0.1,2.2l0,7.8c0,1.9-0.2,4.1,0.3,5.9c0,0.1,0.1,0.3,0.1,0.4c0,0.1,0.1,0.3,0.1,0.4
	c0.1,0.1,0.1,0.3,0.2,0.4c0.1,0.1,0.1,0.3,0.2,0.4c0.1,0.1,0.1,0.3,0.2,0.4c0.1,0.1,0.2,0.2,0.3,0.4c0.1,0.1,0.2,0.2,0.3,0.3
	c0.1,0.1,0.2,0.2,0.3,0.3c1.3,1.4,3,2,4.9,2c0.1,0,0.2,0,0.4,0c0.1,0,0.2,0,0.4,0c0.1,0,0.2,0,0.4,0c0.1,0,0.2,0,0.4-0.1
	c0.1,0,0.2,0,0.3-0.1c0.1,0,0.2-0.1,0.3-0.1c0.1,0,0.2-0.1,0.3-0.1c0.1,0,0.2-0.1,0.3-0.1c0.1,0,0.2-0.1,0.3-0.1
	c0.1,0,0.2-0.1,0.3-0.2c0.1-0.1,0.2-0.1,0.3-0.2c0.1-0.1,0.2-0.1,0.3-0.2c0.1-0.1,0.2-0.1,0.3-0.2c0.1-0.1,0.2-0.1,0.3-0.2
	c0.1-0.1,0.2-0.1,0.3-0.2c0.1-0.1,0.2-0.2,0.3-0.2c0.9-0.9,1.6-2.1,1.9-3.3c0.4-1.6,0.2-3.9,0.2-5.5c0-3.4-0.1-6.7,0-10.1
	c2.7,1.7,5.3,3.5,7.9,5.3l0,7.1c-0.1,0.3-1.8,1.4-2.2,1.8c-4.4,3.4-8.9,6.7-13.8,9.2c-1.4,0.7-2.9,1.4-4.4,2
	c-2.1-1.1-5.7-2.3-7.3-3.9c-1.1-1.1-1.7-2.5-2-3.9c-0.4-1.8-0.2-3.8-0.2-5.7l0-6.5c0.8-0.5,1.6-1.1,2.4-1.7l3.5-2.5
	C19.4,15.7,20,15.2,20.7,14.8"/>
<path class="st2" d="M84.6,19.9h-4.7v10.9c0,2.3-0.8,3.5-3.2,3.5c-2.3,0-3.2-1.2-3.2-3.5V19.9h-4.7v10.6c0,5.2,2.4,7.8,7.9,7.8
	c5.5,0,7.8-2.6,7.8-7.8V19.9z"/>
<polygon class="st2" points="87.7,37.9 92.1,37.9 92.1,26.7 92.2,26.7 98.4,37.9 103.3,37.9 103.3,19.9 98.8,19.9 98.8,31 98.8,31 
	92.5,19.9 87.7,19.9 "/>
<rect x="106.5" y="19.9" class="st2" width="4.7" height="18"/>
<path class="st2" d="M119.1,30h3.8c1.4,0,2.5,0.5,2.5,2.1c0,1.5-1,2-2.5,2h-3.8V30z M114.4,37.9h8.7c3.9,0,7-1.3,7-5.6
	c0-2-1.2-3.7-3.1-4.3c1.4-0.7,2.4-2,2.4-3.6c0-3.7-3.4-4.6-6.5-4.5h-8.4V37.9z M119.1,23.5h3.6c1,0,1.9,0.4,1.9,1.7
	c0,1.3-1.1,1.7-1.9,1.7h-3.6V23.5z"/>
<path class="st2" d="M132.6,37.9h4.7v-6.6h3.6c2.2,0,2.5,1.9,2.6,3.7c0.1,0.5,0.1,2.2,0.5,2.9h4.6c-0.6-0.7-0.7-3.3-0.8-4.1
	c-0.1-1.7-0.7-3.8-2.6-4.3v-0.1c1.9-0.7,2.8-2.6,2.8-4.5c0-3.6-3.2-5.1-6.3-5.1h-9.2V37.9z M137.3,23.6h3.7c1.3,0,2.4,0.6,2.4,1.9
	c0,1.4-0.8,2.1-2.2,2.1h-3.9V23.6z"/>
<rect x="150.9" y="19.9" class="st2" width="4.7" height="18"/>
<path class="st2" d="M158.8,37.9h7.7c5.5,0,8.8-3.2,8.8-9.1c0-5.6-3.3-8.9-8.8-8.9h-7.7V37.9z M163.5,23.9h2.2c3.2,0,5,1.6,5,4.9
	c0,3.6-1.4,5-5,5.1h-2.2V23.9z"/>
<path class="st2" d="M194.6,28H187v3.5h3.3c-0.3,1.6-1.8,2.7-4.1,2.7c-3,0-4.2-2.7-4.2-5.4c0-2.7,1.2-5.4,4.2-5.4
	c1.9,0,3.4,0.9,3.6,2.5h4.7c-0.4-4.5-4.4-6.5-8.2-6.5c-5.5,0-9,4.2-9,9.4c0,5.2,3.5,9.4,9,9.4c1.6,0,3.8-0.6,5-2.3l0.3,2h3V28z"/>
<polygon class="st2" points="197.6,37.9 212.2,37.9 212.2,33.8 202.3,33.8 202.3,30.4 211.1,30.4 211.1,26.8 202.3,26.8 202.3,23.6 
	212,23.6 212,19.9 197.6,19.9 "/>
</svg>
