<?xml version="1.0" encoding="utf-8"?>
<!-- Generator: Adobe Illustrator 26.0.2, SVG Export Plug-In . SVG Version: 6.00 Build 0)  -->
<svg version="1.1" id="Слой_1" xmlns="http://www.w3.org/2000/svg" xmlns:xlink="http://www.w3.org/1999/xlink" x="0px" y="0px"
	 viewBox="0 0 208 206" style="enable-background:new 0 0 208 206;" xml:space="preserve">
<style type="text/css">
	.st0{fill:#FF5E00;}
</style>
<path class="st0" d="M100.6,193.2c-51.6-0.3-92.9-41.9-92.4-93.4C8.6,47.5,52,7,102.6,7.8c50.2,0.8,91.4,42.5,91.2,93.3
	C193.6,152.2,151.9,193.5,100.6,193.2z M101,174.1c40.6,0,74-33.4,73.7-73.8C174.4,59.9,141.4,27,101,27c-40.6,0-74,33.5-73.7,73.8
	C27.6,141.3,60.6,174.1,101,174.1z"/>
<path class="st0" d="M81.3,112.2c1.8-1.7,3-2.7,4.1-3.9c13.3-13.3,26.6-26.6,39.9-39.9c3.1-3.1,6.9-5.1,10.7-2.8
	c2.7,1.6,5.2,4.7,6,7.6c0.6,2.3-0.8,6.1-2.6,8c-16.8,17.2-33.7,34.1-50.8,51c-4.2,4.2-9.6,4.1-13.9-0.1
	c-6.4-6.1-12.6-12.4-18.7-18.7c-4.1-4.2-4-10-0.2-13.9c3.7-3.7,9.6-3.7,13.8,0.5C73.6,103.9,77.3,108,81.3,112.2z"/>
</svg>
