<?xml version="1.0" encoding="utf-8"?>
<!-- Generator: Adobe Illustrator 26.0.2, SVG Export Plug-In . SVG Version: 6.00 Build 0)  -->
<svg version="1.1" id="Capa_1" xmlns="http://www.w3.org/2000/svg" xmlns:xlink="http://www.w3.org/1999/xlink" x="0px" y="0px"
	 viewBox="0 0 512 512" style="enable-background:new 0 0 512 512;" xml:space="preserve">
<style type="text/css">
	.st0{fill:none;stroke:#FF5E00;stroke-width:30.0012;stroke-linecap:round;stroke-linejoin:round;stroke-miterlimit:10.0004;}
</style>
<g>
	<path class="st0" d="M256,15C146.2,15,57.2,40.3,57.2,71.5v211.9C57.2,352.5,97.4,416,162,449l94,48l94-48
		c64.6-33,104.9-96.5,104.9-165.6V71.5C454.8,40.3,365.8,15,256,15z"/>
	<path class="st0" d="M189.3,395.6c-44.5-22.7-72.2-65.7-72.2-112.2V94.1c7.7-3,19.6-6.7,36.3-10c29.8-6,65.2-9.1,102.5-9.1
		s72.8,3.1,102.5,9.1c16.7,3.3,28.5,7,36.3,10v189.3c0,46.5-27.6,89.4-72.2,112.2l-66.7,34L189.3,395.6z"/>
	<polyline class="st0" points="331.4,185.6 232.2,292.5 180.6,237.9 	"/>
</g>
</svg>
