<?xml version="1.0" encoding="utf-8"?>
<!-- Generator: Adobe Illustrator 26.0.2, SVG Export Plug-In . SVG Version: 6.00 Build 0)  -->
<svg version="1.1"
	 id="Слой_1" image-rendering="optimizeQuality" shape-rendering="geometricPrecision" text-rendering="geometricPrecision"
	 xmlns="http://www.w3.org/2000/svg" xmlns:xlink="http://www.w3.org/1999/xlink" x="0px" y="0px" viewBox="0 0 512 512"
	 style="enable-background:new 0 0 512 512;" xml:space="preserve">
<style type="text/css">
	.st0{fill-rule:evenodd;clip-rule:evenodd;fill:#FF5E00;}
	.st1{fill:#FF5E00;}
</style>
<g id="Layer_x0020_1">
	<g id="_500808112">
		<path id="_500807800" class="st0" d="M310.5,61.4c15.7,4.4,30.7,10.6,44.6,18.5l31.2-31.2c6.7-6.7,17.7-6.7,24.5,0l52.6,52.6
			c6.7,6.7,6.7,17.7,0,24.5l-31.2,31.2c7.9,13.9,14.1,28.9,18.5,44.6h44.1c9.5,0,17.3,7.8,17.3,17.3v74.3c0,9.5-7.8,17.3-17.3,17.3
			h-44.1c-4.4,15.7-10.6,30.7-18.5,44.6l31.2,31.2c6.7,6.7,6.7,17.7,0,24.5l-52.6,52.6c-6.7,6.7-17.7,6.7-24.5,0l-31.2-31.2
			c-13.9,7.9-28.9,14.1-44.6,18.5v44.1c0,9.5-7.8,17.3-17.3,17.3h-74.3c-9.5,0-17.3-7.8-17.3-17.3v-44.1
			c-15.7-4.4-30.7-10.6-44.6-18.5l-31.2,31.2c-6.7,6.7-17.7,6.7-24.5,0l-52.6-52.6c-6.7-6.7-6.7-17.7,0-24.5l31.2-31.2
			c-7.9-13.9-14.1-28.9-18.5-44.6H17.3c-9.5,0-17.3-7.8-17.3-17.3v-74.3c0-9.5,7.8-17.3,17.3-17.3h44c4.4-15.7,10.6-30.7,18.5-44.6
			l-31.2-31.2c-6.7-6.7-6.7-17.7,0-24.5l52.6-52.6c6.7-6.7,17.7-6.7,24.5,0l31.2,31.2c13.9-7.9,28.9-14.1,44.6-18.5V17.3
			c0-9.5,7.8-17.3,17.3-17.3h74.3c9.5,0,17.3,7.8,17.3,17.3L310.5,61.4L310.5,61.4z M256,104.3c83.8,0,151.7,67.9,151.7,151.7
			S339.8,407.7,256,407.7S104.3,339.8,104.3,256S172.2,104.3,256,104.3L256,104.3z"/>
		<path id="_500808136" class="st1" d="M200.2,257c-8.8-8.8-23.1-8.8-31.9,0c-8.8,8.8-8.8,23.1,0,31.9l36.5,36.5l0,0
			c8.8,8.8,23.1,8.8,31.9,0l0.1-0.1l106.8-106.8c8.8-8.8,8.8-23.1,0-31.9c-8.8-8.8-23.1-8.8-31.9,0l-91,91L200.2,257z"/>
	</g>
</g>
</svg>
