<?xml version="1.0" encoding="utf-8"?>
<!-- Generator: Adobe Illustrator 26.0.2, SVG Export Plug-In . SVG Version: 6.00 Build 0)  -->
<svg version="1.1" id="Слой_1" xmlns="http://www.w3.org/2000/svg" xmlns:xlink="http://www.w3.org/1999/xlink" x="0px" y="0px"
	 viewBox="0 0 24 24" style="enable-background:new 0 0 24 24;" xml:space="preserve">
<style type="text/css">
	.st0{fill-rule:evenodd;clip-rule:evenodd;fill:#FF5E00;}
</style>
<g>
	<path class="st0" d="M20,4.1V2.7C20,1.2,18.8,0,17.3,0c0,0,0,0,0,0c-0.2,0-0.6,0-1,0.2L5.8,4H5C2.2,4,0,6.2,0,9v5c0,0.6,0.4,1,1,1
		s1-0.4,1-1V9c0-1.6,1.4-3,3-3h14c1.6,0,3,1.4,3,3v2h-3c-1.7,0-3,1.3-3,3s1.3,3,3,3h3v2c0,1.6-1.4,3-3,3h-7c-0.6,0-1,0.4-1,1
		s0.4,1,1,1h7c2.8,0,5-2.2,5-5v-3v-4V9C24,6.6,22.3,4.6,20,4.1z M17,2C17.1,2,17.1,2,17,2c0.1,0,0.1,0,0.1,0c0,0,0.1,0,0.1,0
		C17.6,2,18,2.4,18,2.7V4h-6.3L17,2z M19,15c-0.5,0-1-0.5-1-1s0.5-1,1-1h3v2H19z"/>
	<path class="st0" d="M10.7,16.3c-0.4-0.4-1-0.4-1.4,0L4,21.6l-2.3-2.3c-0.4-0.4-1-0.4-1.4,0s-0.4,1,0,1.4l3,3c0.4,0.4,1,0.4,1.4,0
		l6-6C11.1,17.3,11.1,16.7,10.7,16.3z"/>
</g>
</svg>
